<mxfile host="app.diagrams.net" agent="Mozilla/5.0 (Windows NT 10.0; Win64; x64) AppleWebKit/537.36 (KHTML, like Gecko) Chrome/141.0.0.0 Safari/537.36" version="28.2.5">
  <diagram name="หน้า-1" id="MukuUHzkavWdLwYUhU_i">
    <mxGraphModel grid="1" page="1" gridSize="10" guides="1" tooltips="1" connect="1" arrows="1" fold="1" pageScale="1" pageWidth="827" pageHeight="1169" math="0" shadow="0">
      <root>
        <mxCell id="0" />
        <mxCell id="1" parent="0" />
        <mxCell id="BYfH4IzAzF9yDnXjIG6W-1" value="" style="edgeStyle=orthogonalEdgeStyle;rounded=0;orthogonalLoop=1;jettySize=auto;html=1;" edge="1" parent="1" source="BYfH4IzAzF9yDnXjIG6W-2" target="BYfH4IzAzF9yDnXjIG6W-4">
          <mxGeometry relative="1" as="geometry" />
        </mxCell>
        <mxCell id="BYfH4IzAzF9yDnXjIG6W-2" value="Start (main)" style="ellipse;whiteSpace=wrap;html=1;" vertex="1" parent="1">
          <mxGeometry x="245" y="128" width="140" height="50" as="geometry" />
        </mxCell>
        <mxCell id="BYfH4IzAzF9yDnXjIG6W-3" value="" style="edgeStyle=orthogonalEdgeStyle;rounded=0;orthogonalLoop=1;jettySize=auto;html=1;" edge="1" parent="1" source="BYfH4IzAzF9yDnXjIG6W-4" target="BYfH4IzAzF9yDnXjIG6W-6">
          <mxGeometry relative="1" as="geometry" />
        </mxCell>
        <mxCell id="BYfH4IzAzF9yDnXjIG6W-4" value="แสดง: Enter file name:" style="shape=parallelogram;perimeter=parallelogramPerimeter;whiteSpace=wrap;html=1;" vertex="1" parent="1">
          <mxGeometry x="200" y="238" width="230" height="60" as="geometry" />
        </mxCell>
        <mxCell id="BYfH4IzAzF9yDnXjIG6W-5" value="" style="edgeStyle=orthogonalEdgeStyle;rounded=0;orthogonalLoop=1;jettySize=auto;html=1;" edge="1" parent="1" source="BYfH4IzAzF9yDnXjIG6W-6" target="BYfH4IzAzF9yDnXjIG6W-8">
          <mxGeometry relative="1" as="geometry" />
        </mxCell>
        <mxCell id="BYfH4IzAzF9yDnXjIG6W-6" value="รับ fname (สตริงไม่เกิน 255 ตัวอักษร)" style="shape=parallelogram;perimeter=parallelogramPerimeter;whiteSpace=wrap;html=1;" vertex="1" parent="1">
          <mxGeometry x="180" y="348" width="270" height="60" as="geometry" />
        </mxCell>
        <mxCell id="BYfH4IzAzF9yDnXjIG6W-7" value="" style="edgeStyle=orthogonalEdgeStyle;rounded=0;orthogonalLoop=1;jettySize=auto;html=1;" edge="1" parent="1" source="BYfH4IzAzF9yDnXjIG6W-8" target="BYfH4IzAzF9yDnXjIG6W-11">
          <mxGeometry relative="1" as="geometry" />
        </mxCell>
        <mxCell id="BYfH4IzAzF9yDnXjIG6W-8" value="เรียกฟังก์ชัน&#xa;file(fname) → total" style="shape=mxgraph.flowchart.predefined_process;whiteSpace=wrap;html=1;" vertex="1" parent="1">
          <mxGeometry x="205" y="463" width="220" height="70" as="geometry" />
        </mxCell>
        <mxCell id="BYfH4IzAzF9yDnXjIG6W-9" value="" style="edgeStyle=orthogonalEdgeStyle;rounded=0;orthogonalLoop=1;jettySize=auto;html=1;" edge="1" parent="1" source="BYfH4IzAzF9yDnXjIG6W-11" target="BYfH4IzAzF9yDnXjIG6W-14">
          <mxGeometry relative="1" as="geometry" />
        </mxCell>
        <mxCell id="BYfH4IzAzF9yDnXjIG6W-48" value="จริง" style="edgeLabel;html=1;align=center;verticalAlign=middle;resizable=0;points=[];" vertex="1" connectable="0" parent="BYfH4IzAzF9yDnXjIG6W-9">
          <mxGeometry x="-0.1901" relative="1" as="geometry">
            <mxPoint as="offset" />
          </mxGeometry>
        </mxCell>
        <mxCell id="BYfH4IzAzF9yDnXjIG6W-10" style="edgeStyle=orthogonalEdgeStyle;rounded=0;orthogonalLoop=1;jettySize=auto;html=1;entryX=0.5;entryY=0;entryDx=0;entryDy=0;" edge="1" parent="1" source="BYfH4IzAzF9yDnXjIG6W-11" target="BYfH4IzAzF9yDnXjIG6W-12">
          <mxGeometry relative="1" as="geometry" />
        </mxCell>
        <mxCell id="BYfH4IzAzF9yDnXjIG6W-49" value="เท็จ" style="edgeLabel;html=1;align=center;verticalAlign=middle;resizable=0;points=[];" vertex="1" connectable="0" parent="BYfH4IzAzF9yDnXjIG6W-10">
          <mxGeometry x="-0.6162" y="-1" relative="1" as="geometry">
            <mxPoint as="offset" />
          </mxGeometry>
        </mxCell>
        <mxCell id="BYfH4IzAzF9yDnXjIG6W-11" value="total &lt; 0 ?" style="rhombus;whiteSpace=wrap;html=1;" vertex="1" parent="1">
          <mxGeometry x="215" y="588" width="200" height="80" as="geometry" />
        </mxCell>
        <mxCell id="BYfH4IzAzF9yDnXjIG6W-12" value="แสดง: Cannot open &#39;fname&#39;" style="shape=parallelogram;perimeter=parallelogramPerimeter;whiteSpace=wrap;html=1;" vertex="1" parent="1">
          <mxGeometry x="510" y="758" width="250" height="50" as="geometry" />
        </mxCell>
        <mxCell id="BYfH4IzAzF9yDnXjIG6W-13" value="" style="edgeStyle=orthogonalEdgeStyle;rounded=0;orthogonalLoop=1;jettySize=auto;html=1;" edge="1" parent="1" source="BYfH4IzAzF9yDnXjIG6W-14" target="BYfH4IzAzF9yDnXjIG6W-15">
          <mxGeometry relative="1" as="geometry" />
        </mxCell>
        <mxCell id="BYfH4IzAzF9yDnXjIG6W-14" value="แสดง: Total number of words in &#39;fname&#39; : total words" style="shape=parallelogram;perimeter=parallelogramPerimeter;whiteSpace=wrap;html=1;" vertex="1" parent="1">
          <mxGeometry x="150" y="748" width="330" height="60" as="geometry" />
        </mxCell>
        <mxCell id="BYfH4IzAzF9yDnXjIG6W-15" value="Stop" style="ellipse;whiteSpace=wrap;html=1;" vertex="1" parent="1">
          <mxGeometry x="255" y="888" width="120" height="50" as="geometry" />
        </mxCell>
        <mxCell id="BYfH4IzAzF9yDnXjIG6W-16" value="ฟังก์ชัน: file(filename) → จำนวนคำ หรือ -1 ถ้าเปิดไฟล์ไม่ได้" style="text;whiteSpace=wrap;html=1;align=left;" vertex="1" parent="1">
          <mxGeometry x="937" y="100" width="520" height="28" as="geometry" />
        </mxCell>
        <mxCell id="BYfH4IzAzF9yDnXjIG6W-17" value="" style="edgeStyle=orthogonalEdgeStyle;rounded=0;orthogonalLoop=1;jettySize=auto;html=1;" edge="1" parent="1" source="BYfH4IzAzF9yDnXjIG6W-18" target="BYfH4IzAzF9yDnXjIG6W-20">
          <mxGeometry relative="1" as="geometry" />
        </mxCell>
        <mxCell id="BYfH4IzAzF9yDnXjIG6W-18" value="Start" style="ellipse;whiteSpace=wrap;html=1;" vertex="1" parent="1">
          <mxGeometry x="1002" y="150" width="110" height="45" as="geometry" />
        </mxCell>
        <mxCell id="BYfH4IzAzF9yDnXjIG6W-19" value="" style="edgeStyle=orthogonalEdgeStyle;rounded=0;orthogonalLoop=1;jettySize=auto;html=1;" edge="1" parent="1" source="BYfH4IzAzF9yDnXjIG6W-20" target="BYfH4IzAzF9yDnXjIG6W-22">
          <mxGeometry relative="1" as="geometry" />
        </mxCell>
        <mxCell id="BYfH4IzAzF9yDnXjIG6W-20" value="รับพารามิเตอร์ filename" style="shape=parallelogram;perimeter=parallelogramPerimeter;whiteSpace=wrap;html=1;" vertex="1" parent="1">
          <mxGeometry x="957" y="240" width="200" height="50" as="geometry" />
        </mxCell>
        <mxCell id="BYfH4IzAzF9yDnXjIG6W-21" value="" style="edgeStyle=orthogonalEdgeStyle;rounded=0;orthogonalLoop=1;jettySize=auto;html=1;" edge="1" parent="1" source="BYfH4IzAzF9yDnXjIG6W-45" target="BYfH4IzAzF9yDnXjIG6W-23">
          <mxGeometry relative="1" as="geometry" />
        </mxCell>
        <mxCell id="BYfH4IzAzF9yDnXjIG6W-22" value="พยายามเปิดไฟล์: fp = fopen(filename, &quot;r&quot;)" style="whiteSpace=wrap;html=1;" vertex="1" parent="1">
          <mxGeometry x="917" y="340" width="280" height="50" as="geometry" />
        </mxCell>
        <mxCell id="BYfH4IzAzF9yDnXjIG6W-32" value="" style="edgeStyle=orthogonalEdgeStyle;rounded=0;orthogonalLoop=1;jettySize=auto;html=1;" edge="1" parent="1" source="BYfH4IzAzF9yDnXjIG6W-23" target="BYfH4IzAzF9yDnXjIG6W-24">
          <mxGeometry relative="1" as="geometry" />
        </mxCell>
        <mxCell id="BYfH4IzAzF9yDnXjIG6W-50" value="จริง" style="edgeLabel;html=1;align=center;verticalAlign=middle;resizable=0;points=[];" vertex="1" connectable="0" parent="BYfH4IzAzF9yDnXjIG6W-32">
          <mxGeometry x="-0.112" relative="1" as="geometry">
            <mxPoint as="offset" />
          </mxGeometry>
        </mxCell>
        <mxCell id="BYfH4IzAzF9yDnXjIG6W-33" style="edgeStyle=orthogonalEdgeStyle;rounded=0;orthogonalLoop=1;jettySize=auto;html=1;entryX=0.5;entryY=0;entryDx=0;entryDy=0;" edge="1" parent="1" source="BYfH4IzAzF9yDnXjIG6W-23" target="BYfH4IzAzF9yDnXjIG6W-27">
          <mxGeometry relative="1" as="geometry" />
        </mxCell>
        <mxCell id="BYfH4IzAzF9yDnXjIG6W-51" value="เท็จ" style="edgeLabel;html=1;align=center;verticalAlign=middle;resizable=0;points=[];" vertex="1" connectable="0" parent="BYfH4IzAzF9yDnXjIG6W-33">
          <mxGeometry x="-0.3963" y="2" relative="1" as="geometry">
            <mxPoint as="offset" />
          </mxGeometry>
        </mxCell>
        <mxCell id="BYfH4IzAzF9yDnXjIG6W-23" value="fp เป็นค่าว่าง ?" style="rhombus;whiteSpace=wrap;html=1;" vertex="1" parent="1">
          <mxGeometry x="957" y="500" width="200" height="80" as="geometry" />
        </mxCell>
        <mxCell id="BYfH4IzAzF9yDnXjIG6W-52" style="edgeStyle=orthogonalEdgeStyle;rounded=0;orthogonalLoop=1;jettySize=auto;html=1;entryX=0;entryY=0.5;entryDx=0;entryDy=0;" edge="1" parent="1" source="BYfH4IzAzF9yDnXjIG6W-24" target="BYfH4IzAzF9yDnXjIG6W-45">
          <mxGeometry relative="1" as="geometry">
            <mxPoint x="897" y="690" as="targetPoint" />
            <Array as="points">
              <mxPoint x="917" y="663" />
              <mxPoint x="917" y="440" />
            </Array>
          </mxGeometry>
        </mxCell>
        <mxCell id="BYfH4IzAzF9yDnXjIG6W-24" value="คืนค่า -1" style="whiteSpace=wrap;html=1;" vertex="1" parent="1">
          <mxGeometry x="977" y="640" width="160" height="45" as="geometry" />
        </mxCell>
        <mxCell id="BYfH4IzAzF9yDnXjIG6W-34" value="" style="edgeStyle=orthogonalEdgeStyle;rounded=0;orthogonalLoop=1;jettySize=auto;html=1;" edge="1" parent="1" source="BYfH4IzAzF9yDnXjIG6W-27" target="BYfH4IzAzF9yDnXjIG6W-28">
          <mxGeometry relative="1" as="geometry" />
        </mxCell>
        <mxCell id="BYfH4IzAzF9yDnXjIG6W-38" style="edgeStyle=orthogonalEdgeStyle;rounded=0;orthogonalLoop=1;jettySize=auto;html=1;entryX=0.5;entryY=0;entryDx=0;entryDy=0;" edge="1" parent="1" target="BYfH4IzAzF9yDnXjIG6W-29">
          <mxGeometry relative="1" as="geometry">
            <mxPoint x="1337" y="810" as="targetPoint" />
            <mxPoint x="1436.9578544061303" y="612.5172413793107" as="sourcePoint" />
            <Array as="points">
              <mxPoint x="1497" y="613" />
              <mxPoint x="1497" y="810" />
              <mxPoint x="1337" y="810" />
            </Array>
          </mxGeometry>
        </mxCell>
        <mxCell id="BYfH4IzAzF9yDnXjIG6W-27" value="อ่านคำสำเร็จ?&#xa;fscanf(fp, &quot;%255s&quot;, token) == 1" style="rhombus;whiteSpace=wrap;html=1;" vertex="1" parent="1">
          <mxGeometry x="1227" y="567.5" width="220" height="90" as="geometry" />
        </mxCell>
        <mxCell id="BYfH4IzAzF9yDnXjIG6W-53" style="edgeStyle=orthogonalEdgeStyle;rounded=0;orthogonalLoop=1;jettySize=auto;html=1;entryX=0;entryY=0.5;entryDx=0;entryDy=0;" edge="1" parent="1" source="BYfH4IzAzF9yDnXjIG6W-28" target="BYfH4IzAzF9yDnXjIG6W-45">
          <mxGeometry relative="1" as="geometry">
            <Array as="points">
              <mxPoint x="827" y="770" />
              <mxPoint x="827" y="440" />
            </Array>
          </mxGeometry>
        </mxCell>
        <mxCell id="BYfH4IzAzF9yDnXjIG6W-28" value="count = count + 1" style="whiteSpace=wrap;html=1;" vertex="1" parent="1">
          <mxGeometry x="1242" y="720" width="190" height="50" as="geometry" />
        </mxCell>
        <mxCell id="BYfH4IzAzF9yDnXjIG6W-36" value="" style="edgeStyle=orthogonalEdgeStyle;rounded=0;orthogonalLoop=1;jettySize=auto;html=1;" edge="1" parent="1" source="BYfH4IzAzF9yDnXjIG6W-29" target="BYfH4IzAzF9yDnXjIG6W-30">
          <mxGeometry relative="1" as="geometry" />
        </mxCell>
        <mxCell id="BYfH4IzAzF9yDnXjIG6W-29" value="ปิดไฟล์: fclose(fp)" style="whiteSpace=wrap;html=1;" vertex="1" parent="1">
          <mxGeometry x="1247" y="850" width="180" height="50" as="geometry" />
        </mxCell>
        <mxCell id="BYfH4IzAzF9yDnXjIG6W-37" value="" style="edgeStyle=orthogonalEdgeStyle;rounded=0;orthogonalLoop=1;jettySize=auto;html=1;" edge="1" parent="1" source="BYfH4IzAzF9yDnXjIG6W-30" target="BYfH4IzAzF9yDnXjIG6W-31">
          <mxGeometry relative="1" as="geometry" />
        </mxCell>
        <mxCell id="BYfH4IzAzF9yDnXjIG6W-30" value="คืนค่า count" style="whiteSpace=wrap;html=1;" vertex="1" parent="1">
          <mxGeometry x="1247" y="950" width="180" height="50" as="geometry" />
        </mxCell>
        <mxCell id="BYfH4IzAzF9yDnXjIG6W-31" value="Stop" style="ellipse;whiteSpace=wrap;html=1;" vertex="1" parent="1">
          <mxGeometry x="1282" y="1063" width="110" height="45" as="geometry" />
        </mxCell>
        <mxCell id="BYfH4IzAzF9yDnXjIG6W-46" value="" style="edgeStyle=orthogonalEdgeStyle;rounded=0;orthogonalLoop=1;jettySize=auto;html=1;" edge="1" parent="1" source="BYfH4IzAzF9yDnXjIG6W-22" target="BYfH4IzAzF9yDnXjIG6W-45">
          <mxGeometry relative="1" as="geometry">
            <mxPoint x="1057" y="390" as="sourcePoint" />
            <mxPoint x="1057" y="450" as="targetPoint" />
          </mxGeometry>
        </mxCell>
        <mxCell id="BYfH4IzAzF9yDnXjIG6W-45" value="" style="ellipse;whiteSpace=wrap;html=1;aspect=fixed;" vertex="1" parent="1">
          <mxGeometry x="1047" y="430" width="20" height="20" as="geometry" />
        </mxCell>
      </root>
    </mxGraphModel>
  </diagram>
</mxfile>
